<mxfile modified="2021-11-30T12:10:35.135Z" host="app.diagrams.net" agent="5.0 (Macintosh; Intel Mac OS X 10_15_7) AppleWebKit/537.36 (KHTML, like Gecko) Chrome/96.0.4664.55 Safari/537.36" etag="2BbfsRF3u9EqEyQk17px" version="15.8.6" type="github">
  <diagram id="Ht1M8jgEwFfnCIfOTk4-" name="Page-1">
    <mxGraphModel dx="2037" dy="1180" grid="1" gridSize="10" guides="1" tooltips="1" connect="1" arrows="1" fold="1" page="1" pageScale="1" pageWidth="1654" pageHeight="1169" math="0" shadow="0">
      <root>
        <mxCell id="0" />
        <mxCell id="1" parent="0" />
        <mxCell id="XcUPPcPvvELV9ezFw-3b-5" value="" style="group;container=1;" vertex="1" connectable="0" parent="1">
          <mxGeometry x="80" y="380" width="340" height="315" as="geometry" />
        </mxCell>
        <mxCell id="XcUPPcPvvELV9ezFw-3b-26" value="" style="group" vertex="1" connectable="0" parent="XcUPPcPvvELV9ezFw-3b-5">
          <mxGeometry width="340" height="300" as="geometry" />
        </mxCell>
        <mxCell id="XcUPPcPvvELV9ezFw-3b-2" value="" style="rounded=0;whiteSpace=wrap;html=1;strokeColor=#000000;" vertex="1" parent="XcUPPcPvvELV9ezFw-3b-26">
          <mxGeometry width="340" height="210" as="geometry" />
        </mxCell>
        <mxCell id="XcUPPcPvvELV9ezFw-3b-1" value="" style="sketch=0;html=1;dashed=0;whitespace=wrap;fillColor=rgba(255, 255, 255, 1);strokeColor=#3333FF;points=[[0.005,0.63,0],[0.1,0.2,0],[0.9,0.2,0],[0.5,0,0],[0.995,0.63,0],[0.72,0.99,0],[0.5,1,0],[0.28,0.99,0]];shape=mxgraph.kubernetes.icon;prIcon=api;fontFamily=Helvetica;fontSize=12;fontColor=rgba(0, 0, 0, 1);align=center;" vertex="1" parent="XcUPPcPvvELV9ezFw-3b-26">
          <mxGeometry x="40" y="20" width="240" height="170" as="geometry" />
        </mxCell>
        <mxCell id="XcUPPcPvvELV9ezFw-3b-4" value="&lt;p style=&quot;font-size: 30px&quot;&gt;kilo main service&lt;/p&gt;" style="text;html=1;align=center;verticalAlign=middle;resizable=0;points=[];autosize=1;strokeColor=none;fillColor=none;" vertex="1" parent="XcUPPcPvvELV9ezFw-3b-26">
          <mxGeometry x="40" y="220" width="240" height="80" as="geometry" />
        </mxCell>
        <mxCell id="XcUPPcPvvELV9ezFw-3b-9" value="" style="sketch=0;points=[[0,0,0],[0.25,0,0],[0.5,0,0],[0.75,0,0],[1,0,0],[0,1,0],[0.25,1,0],[0.5,1,0],[0.75,1,0],[1,1,0],[0,0.25,0],[0,0.5,0],[0,0.75,0],[1,0.25,0],[1,0.5,0],[1,0.75,0]];outlineConnect=0;fontColor=#232F3E;gradientColor=#945DF2;gradientDirection=north;fillColor=#5A30B5;strokeColor=#ffffff;dashed=0;verticalLabelPosition=bottom;verticalAlign=top;align=center;html=1;fontSize=12;fontStyle=0;aspect=fixed;shape=mxgraph.aws4.resourceIcon;resIcon=mxgraph.aws4.managed_streaming_for_kafka;" vertex="1" parent="1">
          <mxGeometry x="550" y="320" width="78" height="78" as="geometry" />
        </mxCell>
        <mxCell id="XcUPPcPvvELV9ezFw-3b-16" value="" style="group" vertex="1" connectable="0" parent="1">
          <mxGeometry x="1220" y="472.5" width="180" height="130" as="geometry" />
        </mxCell>
        <mxCell id="XcUPPcPvvELV9ezFw-3b-14" value="" style="aspect=fixed;html=1;points=[];align=center;image;fontSize=12;image=img/lib/azure2/databases/Azure_Database_PostgreSQL_Server.svg;strokeColor=#000000;" vertex="1" parent="XcUPPcPvvELV9ezFw-3b-16">
          <mxGeometry x="60" width="48" height="64" as="geometry" />
        </mxCell>
        <mxCell id="XcUPPcPvvELV9ezFw-3b-15" value="postgreSQL" style="text;html=1;align=center;verticalAlign=middle;resizable=0;points=[];autosize=1;strokeColor=none;fillColor=none;fontSize=30;" vertex="1" parent="XcUPPcPvvELV9ezFw-3b-16">
          <mxGeometry y="90" width="180" height="40" as="geometry" />
        </mxCell>
        <mxCell id="XcUPPcPvvELV9ezFw-3b-18" value="" style="group;container=1;" vertex="1" connectable="0" parent="1">
          <mxGeometry x="710" y="280" width="290" height="251.78217821782178" as="geometry" />
        </mxCell>
        <mxCell id="XcUPPcPvvELV9ezFw-3b-24" value="" style="group;container=1;" vertex="1" connectable="0" parent="XcUPPcPvvELV9ezFw-3b-18">
          <mxGeometry x="10" y="100" width="290" height="251.78217821782178" as="geometry" />
        </mxCell>
        <mxCell id="XcUPPcPvvELV9ezFw-3b-6" value="" style="rounded=0;whiteSpace=wrap;html=1;fontSize=30;strokeColor=#000000;" vertex="1" parent="XcUPPcPvvELV9ezFw-3b-24">
          <mxGeometry y="50" width="220" height="150.4" as="geometry" />
        </mxCell>
        <mxCell id="XcUPPcPvvELV9ezFw-3b-23" value="" style="sketch=0;html=1;dashed=0;whitespace=wrap;fillColor=#2875E2;strokeColor=#ffffff;points=[[0.005,0.63,0],[0.1,0.2,0],[0.9,0.2,0],[0.5,0,0],[0.995,0.63,0],[0.72,0.99,0],[0.5,1,0],[0.28,0.99,0]];shape=mxgraph.kubernetes.icon;prIcon=api;fontSize=30;" vertex="1" parent="XcUPPcPvvELV9ezFw-3b-24">
          <mxGeometry x="5.784999999999997" y="68.33111111111111" width="208.4375" height="115.12777777777778" as="geometry" />
        </mxCell>
        <mxCell id="XcUPPcPvvELV9ezFw-3b-44" value="" style="group" vertex="1" connectable="0" parent="XcUPPcPvvELV9ezFw-3b-18">
          <mxGeometry x="35" y="-30" width="220" height="150.4" as="geometry" />
        </mxCell>
        <mxCell id="XcUPPcPvvELV9ezFw-3b-40" value="" style="rounded=0;whiteSpace=wrap;html=1;fontSize=30;strokeColor=#000000;" vertex="1" parent="XcUPPcPvvELV9ezFw-3b-44">
          <mxGeometry width="220" height="150.4" as="geometry" />
        </mxCell>
        <mxCell id="XcUPPcPvvELV9ezFw-3b-41" value="" style="sketch=0;html=1;dashed=0;whitespace=wrap;fillColor=#2875E2;strokeColor=#ffffff;points=[[0.005,0.63,0],[0.1,0.2,0],[0.9,0.2,0],[0.5,0,0],[0.995,0.63,0],[0.72,0.99,0],[0.5,1,0],[0.28,0.99,0]];shape=mxgraph.kubernetes.icon;prIcon=api;fontSize=30;" vertex="1" parent="XcUPPcPvvELV9ezFw-3b-44">
          <mxGeometry x="5.784999999999968" y="18.331111111111113" width="208.4375" height="115.12777777777778" as="geometry" />
        </mxCell>
        <mxCell id="XcUPPcPvvELV9ezFw-3b-20" value="" style="sketch=0;outlineConnect=0;fontColor=#232F3E;gradientColor=none;fillColor=#232F3D;strokeColor=none;dashed=0;verticalLabelPosition=bottom;verticalAlign=top;align=center;html=1;fontSize=12;fontStyle=0;aspect=fixed;pointerEvents=1;shape=mxgraph.aws4.mobile_client;" vertex="1" parent="1">
          <mxGeometry x="230" y="60" width="70.5" height="134.12" as="geometry" />
        </mxCell>
        <mxCell id="XcUPPcPvvELV9ezFw-3b-21" value="" style="endArrow=classic;html=1;rounded=0;fontSize=30;" edge="1" parent="1" target="XcUPPcPvvELV9ezFw-3b-2">
          <mxGeometry width="50" height="50" relative="1" as="geometry">
            <mxPoint x="250" y="190" as="sourcePoint" />
            <mxPoint x="700" y="440" as="targetPoint" />
          </mxGeometry>
        </mxCell>
        <mxCell id="XcUPPcPvvELV9ezFw-3b-22" value="checkout" style="text;html=1;align=center;verticalAlign=middle;resizable=0;points=[];autosize=1;strokeColor=none;fillColor=none;fontSize=30;" vertex="1" parent="1">
          <mxGeometry x="90" y="220" width="140" height="40" as="geometry" />
        </mxCell>
        <mxCell id="XcUPPcPvvELV9ezFw-3b-27" value="" style="endArrow=classic;html=1;rounded=0;fontSize=30;exitX=0.996;exitY=0.939;exitDx=0;exitDy=0;exitPerimeter=0;entryX=0;entryY=1;entryDx=0;entryDy=0;" edge="1" parent="1" source="XcUPPcPvvELV9ezFw-3b-2" target="XcUPPcPvvELV9ezFw-3b-6">
          <mxGeometry width="50" height="50" relative="1" as="geometry">
            <mxPoint x="650" y="490" as="sourcePoint" />
            <mxPoint x="710" y="577" as="targetPoint" />
          </mxGeometry>
        </mxCell>
        <mxCell id="XcUPPcPvvELV9ezFw-3b-28" value="access payment" style="text;html=1;align=center;verticalAlign=middle;resizable=0;points=[];autosize=1;strokeColor=none;fillColor=none;fontSize=30;" vertex="1" parent="1">
          <mxGeometry x="450" y="620" width="230" height="40" as="geometry" />
        </mxCell>
        <mxCell id="XcUPPcPvvELV9ezFw-3b-30" value="" style="endArrow=classic;html=1;rounded=0;fontSize=30;exitX=1;exitY=0.5;exitDx=0;exitDy=0;" edge="1" parent="1" source="XcUPPcPvvELV9ezFw-3b-6" target="XcUPPcPvvELV9ezFw-3b-14">
          <mxGeometry width="50" height="50" relative="1" as="geometry">
            <mxPoint x="650" y="490" as="sourcePoint" />
            <mxPoint x="700" y="440" as="targetPoint" />
          </mxGeometry>
        </mxCell>
        <mxCell id="XcUPPcPvvELV9ezFw-3b-33" value="" style="endArrow=classic;html=1;rounded=0;fontSize=30;entryX=1;entryY=0.75;entryDx=0;entryDy=0;" edge="1" parent="1">
          <mxGeometry width="50" height="50" relative="1" as="geometry">
            <mxPoint x="720" y="546" as="sourcePoint" />
            <mxPoint x="420" y="545.5" as="targetPoint" />
          </mxGeometry>
        </mxCell>
        <mxCell id="XcUPPcPvvELV9ezFw-3b-34" value="return vnpay url" style="text;html=1;align=center;verticalAlign=middle;resizable=0;points=[];autosize=1;strokeColor=none;fillColor=none;fontSize=30;" vertex="1" parent="1">
          <mxGeometry x="460" y="480" width="220" height="40" as="geometry" />
        </mxCell>
        <mxCell id="XcUPPcPvvELV9ezFw-3b-35" value="" style="endArrow=classic;html=1;rounded=0;fontSize=30;exitX=0.597;exitY=-0.007;exitDx=0;exitDy=0;exitPerimeter=0;" edge="1" parent="1" source="XcUPPcPvvELV9ezFw-3b-2">
          <mxGeometry width="50" height="50" relative="1" as="geometry">
            <mxPoint x="650" y="490" as="sourcePoint" />
            <mxPoint x="283" y="190" as="targetPoint" />
          </mxGeometry>
        </mxCell>
        <mxCell id="XcUPPcPvvELV9ezFw-3b-36" value="return vnpay url" style="text;html=1;align=center;verticalAlign=middle;resizable=0;points=[];autosize=1;strokeColor=none;fillColor=none;fontSize=30;" vertex="1" parent="1">
          <mxGeometry x="300" y="230" width="220" height="40" as="geometry" />
        </mxCell>
        <mxCell id="XcUPPcPvvELV9ezFw-3b-37" value="" style="endArrow=classic;html=1;rounded=0;fontSize=30;entryX=0.001;entryY=0.611;entryDx=0;entryDy=0;entryPerimeter=0;" edge="1" parent="1" source="XcUPPcPvvELV9ezFw-3b-20" target="XcUPPcPvvELV9ezFw-3b-11">
          <mxGeometry width="50" height="50" relative="1" as="geometry">
            <mxPoint x="650" y="490" as="sourcePoint" />
            <mxPoint x="630" y="150" as="targetPoint" />
          </mxGeometry>
        </mxCell>
        <mxCell id="XcUPPcPvvELV9ezFw-3b-38" value="access payment through vnpay url" style="text;html=1;align=center;verticalAlign=middle;resizable=0;points=[];autosize=1;strokeColor=none;fillColor=none;fontSize=23;" vertex="1" parent="1">
          <mxGeometry x="340" y="80" width="370" height="30" as="geometry" />
        </mxCell>
        <mxCell id="XcUPPcPvvELV9ezFw-3b-39" value="" style="group" vertex="1" connectable="0" parent="1">
          <mxGeometry x="740" y="20" width="380" height="250" as="geometry" />
        </mxCell>
        <mxCell id="XcUPPcPvvELV9ezFw-3b-17" value="" style="group;container=1;" vertex="1" connectable="0" parent="XcUPPcPvvELV9ezFw-3b-39">
          <mxGeometry width="240" height="250" as="geometry" />
        </mxCell>
        <mxCell id="XcUPPcPvvELV9ezFw-3b-11" value="" style="whiteSpace=wrap;html=1;fontSize=30;strokeColor=#000000;" vertex="1" parent="XcUPPcPvvELV9ezFw-3b-17">
          <mxGeometry width="240" height="180" as="geometry" />
        </mxCell>
        <mxCell id="XcUPPcPvvELV9ezFw-3b-10" value="" style="sketch=0;html=1;dashed=0;whitespace=wrap;fillColor=#2875E2;strokeColor=#ffffff;points=[[0.005,0.63,0],[0.1,0.2,0],[0.9,0.2,0],[0.5,0,0],[0.995,0.63,0],[0.72,0.99,0],[0.5,1,0],[0.28,0.99,0]];shape=mxgraph.kubernetes.icon;prIcon=api;fontSize=30;" vertex="1" parent="XcUPPcPvvELV9ezFw-3b-17">
          <mxGeometry x="37.5" y="31" width="165" height="118" as="geometry" />
        </mxCell>
        <mxCell id="XcUPPcPvvELV9ezFw-3b-12" value="VNPay" style="text;html=1;align=center;verticalAlign=middle;resizable=0;points=[];autosize=1;strokeColor=none;fillColor=none;fontSize=30;" vertex="1" parent="XcUPPcPvvELV9ezFw-3b-39">
          <mxGeometry x="270" y="80" width="110" height="40" as="geometry" />
        </mxCell>
        <mxCell id="XcUPPcPvvELV9ezFw-3b-45" value="update payment status" style="text;html=1;align=center;verticalAlign=middle;resizable=0;points=[];autosize=1;strokeColor=none;fillColor=none;fontSize=23;" vertex="1" parent="XcUPPcPvvELV9ezFw-3b-39">
          <mxGeometry x="130" y="190" width="250" height="30" as="geometry" />
        </mxCell>
        <mxCell id="XcUPPcPvvELV9ezFw-3b-8" value="payment &lt;br&gt;internal &lt;br&gt;service" style="text;html=1;align=center;verticalAlign=middle;resizable=0;points=[];autosize=1;strokeColor=none;fillColor=none;fontSize=30;" vertex="1" parent="1">
          <mxGeometry x="770.00125" y="620.0021782178218" width="130" height="110" as="geometry" />
        </mxCell>
        <mxCell id="XcUPPcPvvELV9ezFw-3b-42" value="payment &lt;br&gt;external&lt;br&gt;service" style="text;html=1;align=center;verticalAlign=middle;resizable=0;points=[];autosize=1;strokeColor=none;fillColor=none;fontSize=30;" vertex="1" parent="1">
          <mxGeometry x="1000.00125" y="260.0021782178218" width="130" height="110" as="geometry" />
        </mxCell>
        <mxCell id="XcUPPcPvvELV9ezFw-3b-43" value="" style="endArrow=classic;html=1;rounded=0;fontSize=23;exitX=0.459;exitY=1;exitDx=0;exitDy=0;exitPerimeter=0;" edge="1" parent="1" source="XcUPPcPvvELV9ezFw-3b-11">
          <mxGeometry width="50" height="50" relative="1" as="geometry">
            <mxPoint x="650" y="460" as="sourcePoint" />
            <mxPoint x="850" y="250" as="targetPoint" />
          </mxGeometry>
        </mxCell>
        <mxCell id="XcUPPcPvvELV9ezFw-3b-46" value="create transaction" style="text;html=1;align=center;verticalAlign=middle;resizable=0;points=[];autosize=1;strokeColor=none;fillColor=none;fontSize=23;" vertex="1" parent="1">
          <mxGeometry x="1010" y="531.78" width="200" height="30" as="geometry" />
        </mxCell>
        <mxCell id="XcUPPcPvvELV9ezFw-3b-48" value="" style="endArrow=classic;html=1;rounded=0;fontSize=23;" edge="1" parent="1">
          <mxGeometry width="50" height="50" relative="1" as="geometry">
            <mxPoint x="740" y="370" as="sourcePoint" />
            <mxPoint x="630" y="370" as="targetPoint" />
          </mxGeometry>
        </mxCell>
        <mxCell id="XcUPPcPvvELV9ezFw-3b-49" value="provide&lt;br&gt;payment&lt;br&gt;message" style="text;html=1;align=center;verticalAlign=middle;resizable=0;points=[];autosize=1;strokeColor=none;fillColor=none;fontSize=23;" vertex="1" parent="1">
          <mxGeometry x="630" y="270" width="110" height="90" as="geometry" />
        </mxCell>
        <mxCell id="XcUPPcPvvELV9ezFw-3b-50" value="" style="endArrow=classic;html=1;rounded=0;fontSize=23;exitX=0;exitY=0.5;exitDx=0;exitDy=0;exitPerimeter=0;" edge="1" parent="1" source="XcUPPcPvvELV9ezFw-3b-9" target="XcUPPcPvvELV9ezFw-3b-2">
          <mxGeometry width="50" height="50" relative="1" as="geometry">
            <mxPoint x="540" y="370" as="sourcePoint" />
            <mxPoint x="700" y="380" as="targetPoint" />
          </mxGeometry>
        </mxCell>
        <mxCell id="XcUPPcPvvELV9ezFw-3b-51" value="consume&lt;br&gt;payment&lt;br&gt;message" style="text;html=1;align=center;verticalAlign=middle;resizable=0;points=[];autosize=1;strokeColor=none;fillColor=none;fontSize=23;" vertex="1" parent="1">
          <mxGeometry x="420" y="280" width="110" height="90" as="geometry" />
        </mxCell>
        <mxCell id="XcUPPcPvvELV9ezFw-3b-52" value="" style="endArrow=classic;html=1;rounded=0;fontSize=23;exitX=0;exitY=0.5;exitDx=0;exitDy=0;" edge="1" parent="1" source="XcUPPcPvvELV9ezFw-3b-2">
          <mxGeometry width="50" height="50" relative="1" as="geometry">
            <mxPoint x="650" y="400" as="sourcePoint" />
            <mxPoint x="220" y="110" as="targetPoint" />
            <Array as="points">
              <mxPoint x="20" y="485" />
              <mxPoint x="20" y="110" />
            </Array>
          </mxGeometry>
        </mxCell>
        <mxCell id="XcUPPcPvvELV9ezFw-3b-53" value="send notification" style="text;html=1;align=center;verticalAlign=middle;resizable=0;points=[];autosize=1;strokeColor=none;fillColor=none;fontSize=23;" vertex="1" parent="1">
          <mxGeometry x="30" y="60" width="180" height="30" as="geometry" />
        </mxCell>
        <mxCell id="XcUPPcPvvELV9ezFw-3b-54" value="" style="endArrow=classic;html=1;rounded=0;fontSize=23;exitX=0.997;exitY=0.912;exitDx=0;exitDy=0;exitPerimeter=0;" edge="1" parent="1" source="XcUPPcPvvELV9ezFw-3b-40" target="XcUPPcPvvELV9ezFw-3b-14">
          <mxGeometry width="50" height="50" relative="1" as="geometry">
            <mxPoint x="650" y="400" as="sourcePoint" />
            <mxPoint x="700" y="350" as="targetPoint" />
          </mxGeometry>
        </mxCell>
        <mxCell id="XcUPPcPvvELV9ezFw-3b-55" value="update transaction" style="text;html=1;align=center;verticalAlign=middle;resizable=0;points=[];autosize=1;strokeColor=none;fillColor=none;fontSize=23;" vertex="1" parent="1">
          <mxGeometry x="1100" y="390.89" width="200" height="30" as="geometry" />
        </mxCell>
      </root>
    </mxGraphModel>
  </diagram>
</mxfile>
